<svg xmlns="http://www.w3.org/2000/svg" viewBox="0 0 512 512">
  <rect width="512" height="512" fill="#339af0" rx="115"/>
  <path fill="#ffffff" d="M256 128c-17.7 0-32 14.3-32 32v192c0 17.7 14.3 32 32 32s32-14.3 32-32V160c0-17.7-14.3-32-32-32zm-96 64c-17.7 0-32 14.3-32 32v128c0 17.7 14.3 32 32 32s32-14.3 32-32V224c0-17.7-14.3-32-32-32zm192 0c-17.7 0-32 14.3-32 32v128c0 17.7 14.3 32 32 32s32-14.3 32-32V224c0-17.7-14.3-32-32-32z"/>
  <circle fill="#ffffff" cx="160" cy="160" r="24"/>
  <circle fill="#ffffff" cx="256" cy="128" r="24"/>
  <circle fill="#ffffff" cx="352" cy="160" r="24"/>
</svg>
